<svg xmlns="http://www.w3.org/2000/svg" viewBox="0 0 64 64"><defs><style>.cls-1{fill:#000842;}.cls-2,.cls-3{fill:#fff;}.cls-3,.cls-5{stroke:#000842;stroke-miterlimit:10;}.cls-4,.cls-5{fill:#f6ae2d;}</style></defs><title>Zeichenfläche 1</title><g id="Ebene_1" data-name="Ebene 1"><rect class="cls-1" width="64" height="64"/></g><g id="likeit"><path class="cls-2" d="M30.12,33.78H25.05a1.52,1.52,0,0,0-1.52,1.52V50.51A1.52,1.52,0,0,0,25.05,52h5.07a1.52,1.52,0,0,0,1.52-1.52V35.3A1.52,1.52,0,0,0,30.12,33.78ZM27.58,49.5A1.52,1.52,0,1,1,29.11,48,1.52,1.52,0,0,1,27.58,49.5Z"/><path class="cls-3" d="M47.11,24.75c0,2.69-1.65,4.2-2.11,6h6.45a3.79,3.79,0,0,1,3.77,3.68A4.59,4.59,0,0,1,54,37.54h0a5.29,5.29,0,0,1-.59,5,5,5,0,0,1-1,4.74A3.31,3.31,0,0,1,52,50.15C50.67,52,47.46,52,44.75,52h-.18A18.06,18.06,0,0,1,37,50a10.09,10.09,0,0,0-3.34-1,.76.76,0,0,1-.75-.76V34.69a.74.74,0,0,1,.23-.54C35.65,31.67,36.73,29,38.79,27a7.75,7.75,0,0,0,1.6-3.73c.29-1.17.88-3.66,2.16-3.66C44.07,19.59,47.11,20.09,47.11,24.75Z"/><path class="cls-4" d="M14.59,21.78H9.52A1.52,1.52,0,0,0,8,23.3V38.51A1.52,1.52,0,0,0,9.52,40h5.07a1.52,1.52,0,0,0,1.52-1.52V23.3A1.52,1.52,0,0,0,14.59,21.78ZM12.06,37.5A1.52,1.52,0,1,1,13.58,36,1.53,1.53,0,0,1,12.06,37.5Z"/><path class="cls-5" d="M31.58,12.75c0,2.69-1.65,4.2-2.11,6h6.45a3.79,3.79,0,0,1,3.77,3.68,4.59,4.59,0,0,1-1.23,3.12h0a5.27,5.27,0,0,1-.59,5,5,5,0,0,1-1,4.74,3.34,3.34,0,0,1-.38,2.83C35.14,40,31.94,40,29.23,40H29a18.06,18.06,0,0,1-7.57-2,10,10,0,0,0-3.34-1,.77.77,0,0,1-.75-.76V22.69a.78.78,0,0,1,.23-.54C20.12,19.67,21.2,17,23.26,15a7.66,7.66,0,0,0,1.61-3.73c.28-1.17.87-3.66,2.15-3.66C28.54,7.59,31.58,8.09,31.58,12.75Z"/></g></svg>